<?xml version="1.0" encoding="UTF-8"?>
<svg id="b" xmlns="http://www.w3.org/2000/svg" version="1.1" viewBox="0 0 1138 552">
  <defs>
    <style>
      .st0 {
        fill: #fff;
      }

      .st0, .st1, .st2, .st3 {
        fill-rule: evenodd;
      }

      .st1 {
        fill: #d99518;
      }

      .st2 {
        fill: #e8ecf4;
      }

      .st3 {
        fill: #6ee7b7;
      }
    </style>
  </defs>
  <g id="c">
    <g id="d" shape-rendering="geometricPrecision">
      <g id="e">
        <path class="st1" d="M585,549l12,3,5-3h-17Z"/>
        <path class="st1" d="M635,542l-4-1-11,3-1,2-2-2-8,1,6-1,4,3,13-1,3-2v-2Z"/>
        <path class="st1" d="M788,425l-26,10,3,2,1-2h7l13-6,2-4Z"/>
        <path class="st1" d="M812,416l-18,6-3,4,12-4,5-4h3l1-2Z"/>
        <path class="st1" d="M948,400v2l4,1h22l-15-3h-11Z"/>
        <path class="st1" d="M901,364l-33,6-2-2,1-2,29-5-9-2-2,2-12,2-2-3-1,4-18,2-33,9-15,6h-5l-2,2-22,7-7,4-45,16-1-2,8-5h3l1-2,5-1-49,16-11,2-2,2-26,4-1,2-8,2h-6l-4-2-9,1-3,3h-65l-17-3h-10l-3-2-12,1-15-3v-3l-6,2-6-3-2-3-30-7-19-8h-6l-1-3-2,2-14-6h-5l-1-2-2,1-9-4-9-1-5-3h-6l-4-3-18-2-2-2-9-1-1-2-1,2-6-1-9-4-6,2-13-2-1-3-1,2h-7l-1-2-5-1,3,2-1,2h-5l-1-3-3,1-14-2h-25l-1,2,14,2,7-1,32,5,2-1,4,2,21,3,2,3h-15l-2-2-7-1-5,2-4-3-2,2-2-2h-21l-2-2-7,2h-39l-14,4-3,3-7-1-21,4-3,2h-5l-3,3,39-5,10,1,3-2,6,1,1,2-2,2-32,4-3,3-6-1-13,2-5,3-6,1-3,4,7,1-5,4,11,1,12-4,7,1,6-3,3-4h5l1,2-5,4-1,4-4,1,17-1-1-4,5-1,3,2,3-1,39,4,4,3h17l2,3-4,2,6,2,4-1,2,2,3-1,3,1,1,3-2,3h-5l-7-3h-9l3,3,19,2,32,9,2-1,29,11,8,1,6,5,2-1,2,4,5-1,3,3h3v3l4,3,4,1-2-2,2-2,19,9,9,2,8,5-1,2-7-2,2,3,4,2,3-1,4,4,18,5,7,4,41,10h6l-5-1v-3l13,1,8,2,1,2-3,2,20,2-9-1-3-3h24l4-2-3,1-14-2-7-4-6-1-1-2,8-3,4,2,14-2,2,2,5-1,4,2,34,1-7-1-5-4,3-2,6,3,5-1v3h4l3-4,5-2h21l5-1,4-3h7l2,2h3l17-6,1-4,4-3,5,2,19-5-2-2-3,2-20,2-3-3h-7l-4,2-21,2-5-6,7-1,7,3,5-3,12-1,3-2,5,1,2-3,20-1,4-3,9-1,9-4h5l8-4h4l3-3h4l2-3,8-3,2-3,14-5-4-1-5,2-1,2-9-1-5,2-1-2,6-3v-4l16-6,3,3-1-2,3-3h8v-3l-2-2,3-2h5l9-5,8-2,6-3,2-3,9-2,18-9h5l12-6,15-2,7-3h-3l-4-3-6,3-2-1-12,4-3-3,4-3,3,1,4-3h4l11-5h5l9-4h8l3-2h5l2-2ZM504,497l17-2,3,1,1,3-5,4h-6l-6-4h-3l-1-2ZM488,490h8l2,3h-7l-3-3ZM635,485l3-2,5,1-1,3h-6l-1-2ZM429,484h6l4,4-2,1-6-2-2-3ZM313,433l2-3h3l4,3,2-1,1,2-2,2-9-1-1-2ZM294,429h8l2,3-2,2h-5l-3-5ZM682,429l5-4,4,1-1,2-6,2-2-1ZM284,422l5-1,4,1,1,2-4,1-5-1-1-2ZM224,390l9-1,1,2-6,2-4-3ZM837,386l-1,2-6,2-3-1,1-2,5-2,4,1ZM863,368l-1,3-17,5-2-1,2-3,15-5,3,1Z"/>
        <path class="st1" d="M890,392l-19,4-3,3-3-1-8,2-5,3h-4l-1,3-4,1h4l3-3,6-2h5l13-5,12-2,4-3Z"/>
      </g>
      <g id="f">
        <path class="st2" d="M674,446l-50,10-2-1-27,3,4,1,35-3,27-5,13-5Z"/>
        <path class="st2" d="M802,397l-13,4-12,7-15,3,2,1-1,3h-2l-2-3-7,4h-3l-10,5,1,4,35-14,22-10,5-4Z"/>
        <path class="st3" d="M1138,405l-19-17,2-5,3,2,2-1-9-7-2,2-6-1-2-4,4-1-16-13-10-4-1,3-4-1-16-9-27-9-1-2,4-1,8,2-32-10-12-2-3-2,1-2,10,1,21,7h6l14,6-5-4-23-11-31-8-1-2,4-1,13,3,40,14,11,6,1-1-16-8-27-10-47-9h-52l-48,7-23,6,16-3v3l-48,12-33,12-2-1,3-3,31-11h-4l-51,19-60,20-42,12-3-1-45,9-46,4h-31l-8-2-3,1-34-4-36-7-37-10,19,6,1,2-3,1-58-18-2-3-10-4-45-11-42-5h-45l-27,3h3l1,2-8,2-13-1-3,2-14,2-20,6-4,4-10,2-28,13-31,22-6,1-13,14-7,4-5,8-3-1-10,10,1,2,8-7,1-3,2,1,2-3,5,2-37,37-7,12,9-11,3,1-1,4-8,10-8,16,4-1,1,5,18-18,2,1-1,2,10-8,1-3,8-3,10-8h4l8-6h3l21-11,2,1-1,2-25,14-3,4,30-15,43-16-10,2-5,3-2-1-14,6-2-1,1-2,8-4,42-13,2-2,51-11,29-3,6,1,5-2h42l2,4,1-3,2,1v2l1-3h8l1,2,4-1,6,5,2-2,5,1v-3l7,1,1,3,1-3,15,3,3-1,5,3,5-1,6,1,1,2,15,2,1,3,2-2,24,7,3-1,4,3,15,3,1,2,19,4,3,3,3-1,9,2,3,3,46,9,3,2,12,2,6-1,3,2,52,2,1-2-9,1-10-1-1-2,32-1,19-2,5-2,7,1,26-5,5-2h-3v-3l7-1,1,3,1-4,10-1,21-7-1-1-14,4-1-2,3-2,47-14,7-4h3l1-3,3,2,1-2,7-3,5,1,16-5,6-4,7-2,8-7,21-10h3l1,2-7,3-1,2,32-11,7-1,3-2,1-4h3l2,4v-5l19-5h7l3-2-3,2h-6v-4l22-5h7l1,3,1-4,17-2,18,1,1-2h2l1,2,27,1,8,2h8l-1-3,3-1,9,2,2,5-2,3h-4l-1-2-13,1-24-3-10,2h25l27,3,3-4-2-3,4-1,21,6h5l10,4,1,2-3,1-26-5,1,2,20,3,2,2,24,7-8-3-2-3,6-1,17,7h4l7,5h6l5,3,6,7,8,2,15,14,4,1v-2ZM28,449l1,3-9,9v-4l8-8ZM686,433l-1,2-7,2-3-1,1-2,6-2,4,1ZM557,393l8-1,1,2-8,1-1-2ZM544,393l9-1,1,2-9,1-1-2ZM571,392l11-1,1,2-11,1-1-2ZM521,392l11-1,1,2-11,1-1-2ZM507,391l8-1,1,2-8,1-1-2ZM474,386l16,1,1,2-16-1-1-2ZM436,377l3-1,12,3,4,3-4,1-14-4-1-2ZM782,342l-3,3-6,2-2-1,1-2,7-3,3,1ZM1004,330h9l1,3-2,1-7-2-1-2ZM952,323l12-1,1,3h-12l-1-2ZM990,321l4-1,4,3-7,1-1-3ZM972,320l9-1,1,2-9,1-1-2ZM953,319l15-1,1,2-15,1-1-2ZM935,320l-1,2-8,1-9-1,2-3,14-1,2,2ZM895,312l-1,2-11,2-7-1,1-2,11-2,7,1ZM899,310l9-1,1,2-9,1-1-2ZM925,308l8-1,1,2-8,1-1-2Z"/>
        <path class="st0" d="M357,144l-2,1-4,11-2,1-1-3-3,4-1,9-9,12v3l-12,13-4,8-33,30-36,28-46,30-45,23-21,7,14-4,2,3-1,2-23,5,33-7h-2l-1-2,5-2,3,1-2,2h9l7-3h8l20-4,1,3-2,2h-3l4,1,9-4,2,1,1-2h10l16-4,20-8,2,2-6,4,6-1,11-7,27-27,16-24,3-8,4-4,5-12-2,1-1-2,5-9v-3h3l7-18-2-6,4-1,5-19-2-3,4-14v-6Z"/>
        <path class="st0" d="M617,156l-30-28-26,32h-2l-28-24-27,34,29,25h3l25-31,30,25,26-31v-2Z"/>
        <path class="st0" d="M891,119l-2-1-8,11-4,3-4,8-7,7-4,2-13-1-8,9-5,11-7,8-9,4-12-1-7-4-7,2-17,22-13,9-10,2-8-3-9-7-7-2-9,1-10,5-27,21-14,7-18,6-5,4-48,14-56,9-47,1-32-4-22-5-24-13-11-15-2-21,5-18,9-18,6-8v-2l-6-1-17,20-9,15-3,9-5,6-7,19-4,15-3,27,2,20,4,14,15,22,8,7,14,6,3,3,16,6,14,1,7,3,39,1,38-4,31-7,31-10,33-16,14-5,2-3h-2l-1-2,5-3-9,3v3l-7,6-2-1-40,15h-9l-1-2,20-7,6-4,10-2-22,5-1-2,5-3,7-1,2-2h4l9-4,12-2,46-20,11-13,25-15h10l15,9h13l13-8,10-10,9-12,5-10,6-6,7-2,11,4h7l7-3,9-10,13-20h18l10-10,8-14,5-16,5-32ZM477,352l16-1,1,2-16,1-1-2ZM542,346l-3,3h-8l3-3h8ZM485,338l9-1,1,2-9,1-1-2ZM588,332v2l-3,2-8,1-3,3h-7l6-5,12-4,3,1ZM579,322l-3,3h-8l1-2,7-2,3,1ZM491,269l20-1,1,2-20,1-1-2ZM476,268l10-1,1,2-10,1-1-2ZM467,267l8-1,1,2-8,1-1-2ZM772,243l1,2-10,11-7,4-1-2,17-15Z"/>
        <path class="st0" d="M975,130l-33-23-4,13-6,10-9,22-5,7v3l17,12,15,18,6,15-1,11-29,25-32,21-31,15-1,4-2-2-4,1-6,4-29,10v4l-7,2,27-6h8l42-13,2,1-2,2h2l1-4,4-1,1,3,7-4,27-6,6-4h2l1,3,18-10,12-11,11-14,6-12-16,23-14,13-2-1,2-5-1-3,3-2,2,4,19-27,11-28,2-12v-15l-3-4-1-8-7-12,1-2,3,2,8,14,4,15v7l1-1-1-13-3-10-8-15-14-16ZM827,297l4-3,5,1-1,2-4,1-4-1Z"/>
        <path class="st0" d="M866,86l-31-26-26,32-6-3-24-21-27,34,32,26,25-31h2l18,16h4v3l7,4,25-30,1-4Z"/>
        <path class="st0" d="M382,59l-28,34v2l31,28h2l28-35-31-29h-2Z"/>
        <path class="st0" d="M178,56l-3,2v7l2,2-4,1-4,8,3,2-1,5-4,6-2-1v-2l-4,7h4l-2,5-3,2-2-3-1,3,3,1-2,7-5,8-2-1v-3l-5,10,13,10,13,14,9,17,2,13-27,25-48,34-8,3-15,10-16,8-39,16,8-3,2,1-1,2,15-4h3v3l-12,3-1,3-10,4-10,2-4,3-8,1-12,5,65-18,23-8,3,2,21-7,1,3,10-4v-3l13-4,15-8h3l1,2-5,4h4l19-13,16-17,6-8,1-6,12-15,4-8,1-8,9-17,1-17,3-2,1-11-1-9-5-16-9-14-34-34Z"/>
        <path class="st0" d="M802,9l-25,34,31,27,21-25,6-10-29-26h-4Z"/>
        <path class="st0" d="M306,0l-5,10-3,1-10,16-3,8-3,1-7,14-3,1-3,4-2,23-2,2-6,72-2,7v16l-2,2v9l-3,6,1,9-6,18,1,1,2-5,4-1,12-15h-2l-1-2,8-14h3l-3,6,1,1,5-11,2-1v3l3-2,9-21,4-17,1-23,3-4,2-21v-14l5-48-2,4-2-1v-9l2-1,2,4V0Z"/>
      </g>
    </g>
  </g>
</svg>
